<?xml version="1.0" standalone="no"?>
<!DOCTYPE svg PUBLIC "-//W3C//DTD SVG 20010904//EN"
 "http://www.w3.org/TR/2001/REC-SVG-20010904/DTD/svg10.dtd">
<svg version="1.0" xmlns="http://www.w3.org/2000/svg"
 width="500.000000pt" height="500.000000pt" viewBox="0 0 500.000000 500.000000"
 preserveAspectRatio="xMidYMid meet">
<metadata>
Created by potrace 1.14, written by Peter Selinger 2001-2017
</metadata>
<g transform="translate(0.000000,500.000000) scale(0.100000,-0.100000)"
fill="#000000" stroke="none">
<path d="M1520 3681 c-19 -11 -45 -37 -58 -59 l-22 -40 2 -1034 3 -1033 23
-33 c48 -67 -25 -63 1119 -62 952 0 1038 1 1062 17 39 25 60 52 71 94 7 24 9
389 8 1053 -3 1012 -3 1015 -24 1043 -11 15 -36 38 -54 51 l-33 22 -1031 0
c-985 -1 -1033 -2 -1066 -19z"/>
</g>
</svg>
